<svg width="1044" height="231" viewBox="0 0 1044 231" fill="none" xmlns="http://www.w3.org/2000/svg">
<path d="M108.75 97.75V97.25C108.75 96.25 109.25 95.5 109.25 94.25C108.75 81.5 109.25 68.25 113 55.75C113 54.5 116.75 47 116.75 45.5C116.75 45.25 117 41.25 117 41L117.75 39.25C117.75 38.75 118.75 37.25 118.75 37.25C117.75 37.25 116.75 37 115.75 37C115.75 37 112.75 37.75 111.25 38.75L109.25 40.25L108.5 41.25L106.25 42C105.25 42 103.25 45.5 102.75 45.5L100.5 46.25C100.5 46.25 99.25 47.25 98.5 47.25L97.5 48.25C91.5 51.75 85.5 55.75 78.5 58.5C73.5 60.75 67.5 63 62.25 64L58.5 65C55.25 66 52.25 67.75 48.75 67.75C48.25 67.75 47.5 67.75 46 67C40 62 34.5 55.75 34.5 47C34.5 44.25 35 43 38 41L40 40.25C42.5 38.75 46 37.75 49.75 37.25C51.5 37 54.25 37 56.25 35.75C58 35.25 60 33.5 61.25 33C62.25 33 65.25 32.5 66.25 32.5C67 32.5 69 30.5 69.5 30.5L71 29.5L73.5 29C74.5 29 77.25 27.5 77.75 27L80.25 25.25L82.75 25C83.25 25 86.5 22.75 86.75 22.75C87.25 22.75 92.5 22 92.75 22C93.75 22 97 21 97.5 21L104.75 15.75L107.5 14.75L110.5 13.75C110.75 13.75 114.5 11.5 114.75 11.5H115.75L117.75 9.74999H118.75L119.75 10.5H130.5C132.5 10.5 133.5 13 135.75 13.25L137.75 13.75C141.25 15.75 147 21 147 25.25C147 32.5 144.75 39.25 142.5 45.5C142 49.25 139.75 53 138.5 55.75L137.75 57.25L135.75 60L135.25 63C132.5 69 127.5 73.75 124.75 79.75C122.75 84 120.5 89.75 119 94.25C117.75 97.75 117 102.5 112.75 102.5C109.25 102.5 108.75 100.75 108.75 97.75ZM2.16067e-07 149.25C2.16067e-07 146.25 0.75 144 4.25 144C6.25 144 8.5 145.75 10.25 145.75C15 145.75 20 144 24.75 142.25L36.5 138C42 135.75 47.5 133.5 52.25 130.5C57.25 128.5 60.25 127 65.25 124.25C66.25 123.75 67 123.25 67 122.25C69.5 115.5 70.25 105.5 71.75 99C73 93 74.5 87.5 75 80L75.75 79.5C76.5 78 78.5 72.5 79 71.25C80.25 69.75 79 69.75 80.75 69.75C85.5 69.75 91.5 79.25 92.75 83.25V85.25C92.75 85.5 94.5 90.5 94.5 91.5V91.75C93.75 99 93.75 104 91.5 111.5C91.5 111.75 90.25 113.25 90.25 114.25L91.5 114.75C91.5 114.75 99.25 112.5 102.25 111.75C102.75 111.75 105.25 110.5 106.25 110.5C109.25 109.75 114.5 108.5 118.75 108.5C121.5 108.5 123.25 107.5 126.25 107.5H129.5C137.75 108.5 146.25 109.75 153.5 113.25C154.75 114.25 157.75 115.5 157.75 115.5L158.75 117C158.75 119 156.5 121 154.75 121H153L150.25 119.75L142 120.25C139.75 120.25 129.5 121.5 127.5 121.5C124.75 123.75 119.75 123.75 117 124.25C110.75 125.75 104.75 128.5 98.5 130.5L95.5 131.25L93.75 132.5L91 133.5L89.5 134.5C86.75 135.75 82.75 137.75 80.25 138.5C76.5 140 75 142 72.25 143.75L71 144C70.25 144 67.5 145 67 145C66.25 145 64.25 147.5 63.5 147.5L53.75 152L53.25 152.5C47.5 156 40 160 33.75 162C26.25 165 22.75 167.75 14.5 167.75H9.5C4.25 166 2.16067e-07 154.25 2.16067e-07 149.25ZM43 208.5C43 204.75 44.75 200.5 46 197.75L46.75 196.5C50.25 192.25 52.25 186.75 55.75 182C55.75 182 58.5 178.5 60 177.25C63.5 173 67 168 71 164.25C71.75 163.25 74.5 161.25 75 160.25L86.75 150C87.25 148.75 91 146 91 146H92.5C95 146 96.5 148 99.25 150.25C101 151.75 104.5 151.75 106.25 152.75C111.25 156.25 116.75 162.5 119.75 168C119.75 168.75 122.25 172 122.25 172.25C123.25 174 126.25 175.75 126.25 178.5C126.25 183.25 123.25 188 119.75 191L118.75 191.5L117 195C116.75 196.5 108.5 197 106.25 200.5L90.25 210.75C87.25 211.25 84.75 213.5 82 214.5C73 216.75 64.25 219 55.25 219.75H52.25C46 219.75 43 213.5 43 208.5ZM67.5 201L68.25 202.25H70.25C73 202.25 76.5 201 79 200.25L97.5 191C98.5 190.25 102.25 188.75 102.75 187.25C103.25 186.75 103.25 185.5 103.25 184.5C103.25 183.25 96.5 175.75 95.5 172.25V169.75C95.5 169.75 95 168.75 94.5 168.75H93.75L90.25 172.25L88.75 173C82 179.75 75 188 69.5 197C69 198.25 67.5 201 67.5 201ZM173.684 94V77C173.684 72.75 174.684 67.75 176.434 63.5C178.184 57.75 179.434 51.25 182.184 45C183.184 42.75 185.934 36.75 186.934 36C186.934 35.5 191.434 31.75 192.934 30.25C194.434 28.75 196.684 27.75 198.934 27.75C201.684 27.75 201.684 31 204.684 31C210.934 31 215.934 27.25 221.184 25C229.184 21.25 238.934 19.75 247.934 17.5C251.684 16.5 255.434 15.5 259.184 15.5C262.184 15.5 275.684 19.25 277.684 21.25C278.434 21.75 282.184 25.75 283.184 26.5L284.184 27.75V28.75C284.184 29.25 282.184 32.5 282.184 32.5L281.434 34.75L276.434 39.75L273.934 40.5C269.684 42.75 268.184 48 265.184 51.5C262.934 54 260.184 56 258.434 59.25C258.434 59.75 256.434 63 256.434 63.5C254.184 67.25 248.684 72.5 246.934 77L265.934 76.5C265.934 76.5 267.184 77.75 267.184 78.5C268.184 79 268.184 80.25 268.184 80.75C268.184 81.5 268.184 81.5 267.184 82.25C266.684 82.75 263.934 85.25 263.934 85.25L260.184 86L257.184 88.25C254.684 89.75 251.684 90.25 248.934 92L231.434 101.5C231.184 102.25 223.434 104.5 222.684 105.25L219.684 106.75L209.184 111.25H204.684C204.184 111.25 201.684 107.5 201.684 106.75C201.684 106.75 201.184 102.25 201.184 100.75V99.5C201.184 97 201.684 94.75 202.434 92C202.434 91 203.434 88.25 203.434 87.25C203.434 86.5 204.684 85.25 204.684 85.25L212.934 84.5L213.684 83.75C216.934 80 222.684 67.5 227.934 61.75L228.934 60L232.434 55.75L235.434 52L238.934 45.5H237.184L235.434 46.25H231.684C231.184 46.25 227.934 47.5 227.934 47.5C224.184 49.5 215.684 50.5 212.684 53.5L209.684 57.25C209.684 58 208.184 59 208.184 59H206.684C205.934 59 203.184 58 202.184 58C200.684 59 199.434 65.5 198.434 67C198.434 67.5 196.934 69.75 196.934 70.75C196.934 71.25 194.434 80.25 194.434 80.75L192.934 82.75C190.684 88.25 191.434 93.25 189.184 98.5V112.5C189.934 114 189.934 114 189.934 116C189.934 116.25 189.934 118.25 189.184 118.25H183.184C180.934 118.25 175.684 102.25 174.684 99.5C174.684 98.5 173.684 94.75 173.684 94ZM217.434 202.5C217.434 201.75 216.684 198.5 218.184 198V188.5C218.184 187.5 219.684 184.75 219.684 183.75V178.75C219.684 177.75 221.184 174.75 221.184 174L221.934 171L222.684 169.75C224.184 167.25 223.434 164.5 224.934 161.5L226.434 159.25L227.184 156.5C227.684 154 231.434 146.75 232.434 145.25C232.434 145.25 234.684 141.5 235.184 140.75C237.684 137.25 240.934 133.5 243.434 130.25H242.934C240.934 130.25 237.184 131.75 235.184 133.5C231.434 134.75 212.934 143 209.184 144.25C208.434 144.25 198.934 148 195.934 149C191.434 150.5 185.934 152.75 181.684 152.75C178.184 152.75 170.434 146 170.434 143V142.25C171.184 139.25 172.184 135.5 175.684 135.5H184.184L200.434 130.25C201.684 129.75 216.684 123.75 218.184 122.75L228.684 119C230.184 118.5 231.434 118.5 232.934 117.75C248.934 113 262.934 109.25 279.434 109.25C284.434 109.25 289.934 109.25 293.684 114C291.934 115.25 288.934 118.5 286.934 118.5L284.434 117.75H282.184L280.684 118.5C280.184 118.5 276.434 119 275.684 119C271.934 120 267.184 121.5 263.934 122.75C262.184 123.75 250.684 126.5 249.684 127.5L247.934 128L253.434 131.75C255.434 134 255.434 136 257.184 139.25C258.434 142.25 260.184 144.25 260.184 147.25C260.184 150.5 256.434 152.75 254.684 154.75C252.684 159.25 251.684 163.5 249.684 168.25L247.934 170.25V172C246.684 175.75 245.184 178.75 244.184 182.75L242.934 183.75L243.434 185.25L242.184 186.5L238.934 192.5C238.934 193.5 237.684 197.25 237.684 198C237.684 198.5 236.184 201.75 236.184 202.5V204.75C236.184 205.25 234.684 207.75 234.684 208.25C234.684 209 232.934 218 232.934 218.75L232.434 220.25V220.75C232.434 223.25 232.934 226.25 232.934 228.25C232.934 230 232.934 230.5 231.434 230.5C228.684 230.5 226.434 228.25 224.934 226.25C219.684 218 217.434 212 217.434 202.5ZM368.182 190.75C368.182 189 368.182 184.75 369.182 183.5C369.182 182.75 372.682 179.25 373.682 178.75C375.932 175 376.932 172.75 380.682 170L384.182 167.75C385.932 166.5 385.932 165.25 387.432 163C391.432 157.5 396.932 153 400.932 147.75C403.182 145.75 404.182 143 404.932 140.75L407.432 140.25L409.682 138.5L410.932 139.75C414.682 142.25 416.182 145.75 416.182 150C416.182 151.5 416.182 152.25 414.932 153.5L408.932 160.25C406.182 163.5 398.932 172.75 398.932 172.75V173.5H404.932C410.932 172.75 416.682 170.75 422.682 170C430.932 168.75 440.182 167.75 448.432 166.5C453.682 164.25 459.682 163.5 465.682 162.25C471.432 160.75 474.932 159 477.932 153.5C478.932 151.5 478.932 149 481.432 147.5V147.75C480.432 152.25 483.432 150.75 483.432 152.25V153L483.932 160.75C485.432 160.75 485.432 157.25 487.932 157.25V160.25C487.932 162.25 488.432 171.25 488.432 173.5L488.932 175.75V176.25C488.932 177.5 488.432 180.5 488.432 180.5C487.932 182.75 483.932 184 482.682 184.75C481.432 185.75 481.432 187.5 471.682 190.75L470.432 189H469.682C459.682 189 455.682 196.75 439.432 194H438.432L434.432 195.5C433.432 195.5 426.682 197.75 426.182 197.75H423.182L422.682 198.5C420.182 199.5 417.432 200.5 412.932 201.25L400.432 204.75L399.682 205.75C397.432 206.25 392.682 209 392.682 209H388.182C385.432 209 380.682 209 376.932 207.75L375.432 206.25L373.682 204.75C369.682 202.25 368.182 194.75 368.182 190.75ZM359.182 149V145.25C359.682 139.75 362.182 132.5 363.182 126.75L364.182 124.5V123.25H362.682L361.432 124.5C360.682 125.25 357.932 126.75 357.432 126.75C346.182 130.75 332.432 134.25 321.432 134.25C317.932 134.25 315.932 134.25 313.682 132.5C312.932 131.75 308.182 127.25 307.182 126C306.682 125.25 305.432 123.25 304.432 122.25C302.932 121 303.932 120.25 303.932 117.5V114.5C304.432 114 306.682 112.25 307.182 112.25H308.182C310.682 112.25 312.432 114 314.182 114H315.432C315.932 114 318.682 113.5 318.682 113.5C322.432 112.25 326.432 112.25 330.182 111C339.932 108.25 347.932 103.5 357.432 98.75C358.432 98.5 361.432 97.75 362.682 96.75L371.182 92C374.182 90.75 376.932 90.25 379.432 88.75L380.682 88.5C384.182 85.25 387.432 84.75 391.182 82.75C393.932 81 394.682 79.75 397.432 79.75H398.932C400.932 79.75 406.682 80.75 407.432 80.75C410.932 81 417.932 82.75 417.932 87.5C417.932 88.75 417.932 91 416.682 92.5L413.932 93.25L412.182 98L407.432 98.75H404.932L398.182 110.25C394.932 114.5 393.182 118.25 391.182 122.25C390.682 123.75 389.182 125.25 388.182 126.75C388.182 127.25 385.932 131.75 385.932 133V134.25C384.432 136 381.682 143.75 381.682 144.25C381.682 146.75 383.182 148.75 378.182 157.25C377.682 157.5 374.182 161.25 373.682 162.25L369.682 163L369.182 165.25C367.682 166.5 367.182 166.5 365.682 166.5C359.182 166.5 359.182 152.25 359.182 149ZM358.432 35.25C359.682 34 362.182 33.25 362.682 32C366.182 29.5 370.682 26 374.182 22.25C376.932 19.75 377.682 16 381.682 14.5C382.432 14.5 385.932 13.75 385.932 13.75C386.932 13.75 389.182 16.5 389.682 16.5C392.682 18.75 395.932 20 398.932 22.25C406.182 28 409.682 37.25 409.682 45.5V50.75C408.182 52.75 406.182 57 404.182 58.5L400.432 61.5L399.682 62C397.432 65.5 394.932 65.5 392.682 67.75C392.682 67.75 389.682 70.5 382.432 76L381.432 77C380.682 77.5 375.432 81 374.682 81.75C368.182 86.5 357.432 90.75 347.932 90.75H341.432C339.932 87.5 336.182 88.75 334.432 87C333.682 85.25 330.932 82.75 330.932 82.75V67.25C330.932 67.25 331.432 65 332.432 64.25C334.432 61.5 336.932 60 338.682 57C340.682 53.5 344.182 50.75 347.432 47C347.932 46.5 349.932 43.5 350.932 43C351.932 41.75 357.432 36.25 358.432 35.25ZM446.182 141.25L442.182 140.25L436.932 128.75C436.932 127.75 435.932 123.75 435.932 123.25C435.932 122.25 434.932 117.5 434.932 117H434.432C428.432 117 423.182 123.25 419.682 126C418.682 126.75 409.682 133 408.932 133.75C408.932 133.75 406.682 136.75 406.182 136.75H402.432L393.182 127.25C393.182 127.25 392.682 125.25 392.682 124.5C392.682 123.25 394.682 121.75 394.932 121.75H399.682C404.182 121 407.432 117.5 411.682 117C418.682 113.5 427.932 108.75 434.932 104C435.932 102 436.932 93.25 437.932 91C438.432 86.25 439.432 80.75 440.682 75.5C440.682 75 442.182 72 442.182 71.5C444.182 62.5 444.682 55 446.932 46.5C449.682 44.5 448.432 39.25 448.432 36.25C448.432 34 447.932 32 447.932 29.5C449.682 26 453.682 24 457.182 24C459.432 24 469.682 28.5 470.432 31.75C471.432 33.75 471.432 35.75 471.432 38C471.432 41.75 469.682 44.5 469.432 48.25C469.432 48.75 468.682 52.25 468.682 52.75L466.182 61.5C466.182 62 465.182 67.75 465.182 68.5C463.932 72 462.932 75 461.932 78.75C461.432 81.75 461.432 85.25 459.432 94.25C459.432 94.25 458.432 96 458.432 96.75C457.932 98.75 457.932 102 457.182 104C455.682 109.75 452.932 117 451.432 122.25C451.432 123.25 450.682 127.25 450.682 127.75C450.682 128.75 449.682 133.75 448.432 136C448.432 136.75 447.932 137.75 447.932 137.75L446.182 141.25ZM361.432 63.5C361.432 64.25 362.682 64.25 362.682 64.25C370.682 64.25 376.932 62.5 384.182 60C385.432 59 387.432 58.5 388.182 57V45.25C388.182 43.5 387.432 40.75 385.932 40.75C382.432 40.75 380.682 45.25 378.182 46.5L373.682 50.75L364.182 60L362.682 62L361.432 63.5ZM639.621 57.75C635.621 57.75 633.121 59.75 628.871 61.25C623.621 62.5 619.621 63.75 614.371 65.25C610.871 65.75 609.371 67.75 601.871 69.5L599.371 71.25L591.871 73.25C588.371 75.5 586.121 77 582.621 77H580.621C577.621 74.75 570.871 69.5 570.871 64.25V61.75C570.871 61.75 571.871 60.25 572.621 60.25C576.621 57.75 582.621 56 586.621 54.25C591.121 52.75 595.121 50 599.371 48.5C605.371 46 612.871 43.25 618.621 41.75C627.121 39.25 636.371 36.75 644.621 36.75C646.371 36.75 653.871 37.75 655.621 37.75C658.871 38.5 668.121 41.75 668.121 46V46.75C668.121 47.5 667.371 50.75 667.371 50.75L664.871 53.75C662.371 56.75 660.621 61.75 657.871 65.25C656.371 67.75 652.371 72 649.871 76.5C654.121 77.25 658.871 79.25 663.121 81C674.871 87 690.121 92.75 690.121 98.75C690.121 99.5 689.121 106.25 687.121 106.25H668.121C667.371 106.25 663.121 104.5 661.371 104.5H657.871C655.621 103.75 652.121 102 649.621 101C647.371 100.25 642.121 101 640.621 99.5C639.621 98.75 636.371 92.75 635.621 92L632.871 88.75C632.871 88.75 627.121 92.75 626.121 93.75C616.871 100.25 609.371 109.5 601.871 118.75C599.371 122.25 596.621 125.25 593.621 128.75C593.621 128.75 591.871 130.25 591.121 130.25L588.371 131L584.371 135.75H583.371C583.371 130.25 583.371 123.75 585.121 118.75L586.621 116.25V114.5C590.121 106.25 595.871 100.25 600.871 94.5L607.621 86.25L608.371 85L610.871 83.5C611.871 83 618.621 76 619.621 75.5C621.371 73.25 623.621 72.75 625.621 71.25C630.121 67.25 635.621 62.5 639.621 57.75ZM586.621 210.75L600.121 197.25L601.871 195C608.371 187.25 615.121 179.25 622.621 172.25L628.871 167.25L631.121 164C631.121 163.25 635.621 160.5 635.621 159.75C637.121 157.25 637.121 155.75 640.621 155.75C643.621 155.75 646.371 156.5 648.871 157.25C649.621 157.25 653.121 158 653.871 158C663.871 161.25 671.121 172.75 675.371 182C675.371 183 676.371 185 676.371 185C676.371 186 675.371 187.75 674.621 188.75C670.371 192.75 664.371 195.25 660.121 198.75L657.621 201C656.121 202.75 646.621 208.75 645.121 210.5C639.871 210.5 638.371 215.25 634.371 217.25H632.621L630.871 218.75C628.371 220.5 625.121 219.5 622.371 220.5L619.871 222H617.621L616.621 222.75L614.871 223.75C609.121 225.5 603.121 227 596.371 227C594.121 227 588.121 225.5 588.121 222L586.621 210.75ZM570.121 162C570.121 160.5 570.871 154.25 572.871 153.5L575.621 154.25H577.371C587.371 154.25 596.371 148.5 606.621 145C611.371 143.5 615.121 142.25 619.621 140.25C624.621 136.5 622.371 130.25 625.121 128.75L626.371 123.75L629.121 116.25C629.121 116.25 630.871 112 630.871 111.25C630.871 110.25 633.371 105.5 633.371 104.5H637.621C639.621 104.5 639.621 104.5 642.121 106.25C643.621 107 645.121 115.25 645.121 117.75V118.75L643.621 121.25L642.871 124.5C642.871 124.5 641.371 128.25 641.371 128.75L638.371 134.75C639.371 134.75 641.621 134.25 642.621 134.25C643.371 134.25 648.621 132.5 649.121 132.5H652.621L653.621 132C661.121 130 669.371 129 676.871 129H684.371L687.871 130C691.371 130.75 698.621 130.75 698.621 134.75C698.621 136.5 698.121 141.5 696.371 141.5L694.121 140.25C693.371 140.25 690.621 139.75 690.621 139.75H688.371C671.371 139.75 657.121 144 641.371 149C640.621 149 630.121 152.25 629.621 152.25C628.871 152.25 624.371 154.5 623.621 154.5H621.371C618.621 155.75 615.121 157.25 612.871 158C604.371 161.25 596.621 164.75 588.371 168L586.121 168.75C582.621 169.5 579.121 173.25 575.871 173.25C570.871 173.25 570.121 165.5 570.121 162ZM642.871 30.25H615.871C615.871 30.25 614.371 31 613.871 31C613.871 31 612.871 30.25 611.871 30.25C604.371 25.25 600.871 21.75 595.871 14.25C595.121 12.5 594.371 10.75 594.371 8.49999L595.871 6.74999L596.621 4.25C597.871 1.49999 601.871 0.749997 603.371 0.749997C604.371 0.749997 608.371 -7.7486e-06 610.121 -7.7486e-06H610.871L618.621 1.49999L620.371 2.74999L624.371 3.25L629.621 5.5C637.621 10.25 648.871 14.25 648.871 25.25C648.871 26.5 649.621 31.75 647.371 31.75C645.121 31.75 644.621 31 642.871 30.25ZM615.121 204C615.121 205 616.871 205 616.871 205C621.371 205 625.621 201.75 629.621 202.5L644.621 196.5C645.121 196.5 650.371 193.25 651.121 193.25C653.121 192.25 656.371 192.25 656.371 189.75C656.371 185.75 653.871 183.75 652.121 180.75L650.371 177.25C649.621 176.25 648.121 174 648.121 174H647.371L637.621 181.25H636.371L621.871 195.5C621.371 196.5 615.871 202.5 615.121 204ZM727.461 125C727.461 120.75 729.211 120 730.211 116.25C730.211 115.5 732.211 110.25 732.211 109.75C732.211 109.25 733.711 106.5 733.711 106C736.211 100 741.711 94.5 745.211 89L745.711 88.5L756.461 73.75L764.211 65.5C764.711 64.75 767.961 62.25 768.211 61.75L770.961 57.5C766.461 58.5 754.711 65.25 751.461 67.75C748.211 69.5 743.961 72.25 740.711 73.5H739.961C737.461 73.5 734.711 72.25 733.211 71.25C731.961 70.25 729.711 68 729.211 68C728.461 67.75 726.461 65.75 726.461 65.75V57.5C726.461 55.75 729.711 53.75 730.711 52.5C733.711 50.25 736.961 47.25 740.711 45.25C742.461 43.75 744.711 42.5 746.461 41.5H748.211L748.711 41C751.461 39.25 754.961 38.25 758.211 36.75C764.461 33.25 772.711 31.25 779.961 30.25C780.711 30.25 783.711 29.5 784.211 29.5H784.711C787.461 29.5 794.461 30.25 794.461 30.25C798.961 30.75 807.461 37.25 809.711 41C810.461 42.5 811.461 44.5 811.461 45.25V45.75C811.461 46.5 811.211 50.25 811.211 50.5C809.461 53 799.461 62.5 797.211 64.5C795.711 65.75 791.461 70 790.461 71L789.461 71.5C788.461 72 784.211 76 783.711 76.75C781.961 79 778.961 82 775.961 84.5L779.461 85.25C787.461 86.5 795.211 89 803.211 91.5C803.461 91.5 806.961 92.5 807.461 92.5C808.711 93 812.211 94.5 812.961 94.5L816.961 96C817.211 96.75 822.711 99.5 822.961 100L824.461 100.5C825.461 101.75 829.961 104 830.461 104.5C831.211 105.5 833.461 107.75 834.211 108.25C835.461 109.75 835.461 109.75 835.461 111C835.461 114.5 832.961 116.25 829.211 116.25C827.461 116.25 827.461 113.25 825.461 113C820.961 111 815.461 111 810.461 109.75L783.211 103.5C779.461 103.25 774.711 102.25 771.211 101.5C770.211 101.5 768.461 99.5 767.961 99.5H766.211C766.211 99.5 763.711 101.5 762.961 101.75L761.711 103.25L760.461 105.5C759.711 106.5 754.961 111 753.961 112L751.461 113.25L748.961 115C745.211 115.5 743.461 119 740.711 121.75L739.461 122.5L738.711 125.25C738.211 128.25 734.211 130.75 732.211 130.75C732.211 130.75 730.211 130.25 729.711 130.25C726.961 129 727.461 126.5 727.461 125ZM703.461 178V175.75L705.461 174.5C705.461 174.5 711.961 173.5 714.961 172.5C715.211 172.5 723.461 171.75 724.211 171.75C724.711 171.75 726.461 170.5 726.961 170.5C727.461 170.5 730.211 169.75 730.711 169.75C733.211 169 736.211 168 738.711 167.75C744.461 166 751.461 165.25 756.711 162.25C758.211 162 758.711 160.25 759.711 159V157.5C760.211 154.25 760.961 151.5 762.461 148.5C762.461 148 763.711 144.75 763.711 144.25C765.461 138.25 769.211 132.25 769.211 126C769.211 123.25 767.461 123 767.461 120.75C767.461 119 767.961 116.25 768.461 114.5L769.211 113.75L769.711 113H774.211C774.711 114.5 777.211 113.75 778.461 114.5C783.211 116.25 786.961 120.75 786.961 125.25C786.961 126.75 785.461 128.25 785.461 129.75C785.461 130.25 784.711 134.75 784.711 135.5C784.211 140.25 781.961 144.25 780.711 148.5C779.961 150.25 777.211 153.75 777.211 155.25L778.461 156.25C782.461 155.25 785.461 155.75 789.961 155.75C790.461 155.75 792.211 155.25 792.961 155.25L798.961 154.25L812.211 153.25L813.461 152.75L814.711 153.25H819.711L818.961 152.75H822.711C826.461 152.75 830.461 153.25 834.211 153.75C834.961 153.75 837.461 155.25 837.961 155.25C838.461 155.25 842.711 157.5 843.961 158.25C845.711 159.5 850.711 162 850.711 163.5C850.711 166.75 849.461 167.75 846.711 168C837.461 169 827.461 168.5 818.461 169.75C817.711 169.75 815.211 170.5 814.711 170.5C811.211 171 807.461 172 803.461 172H798.461L794.461 173.5C793.961 173.5 791.461 174.5 790.961 174.5H786.961C782.461 175.25 778.461 178.25 774.211 179H772.211L771.711 179.75H769.711L767.461 181.25H766.211L759.711 183.25L757.711 184H754.711C752.211 184 750.461 186.25 748.211 187C745.211 187.5 741.711 187.75 739.461 188.75H738.211L737.211 189.75C733.211 189.5 728.461 191 724.211 191C719.961 191 714.961 191 711.211 189.75C711.211 189.75 710.211 189.5 709.461 188.75C704.461 184.75 703.461 183.75 703.461 178ZM855.137 139.75V138.5L855.637 136.75L855.137 135.25V134.5C855.137 133.5 855.637 131.5 855.637 131.5L864.387 114.5C864.387 113.5 865.637 112.5 866.137 111.75L867.637 111.25C867.637 110.25 869.637 107.75 869.637 107C869.637 106.5 871.637 104.25 871.637 104.25C872.887 103.25 874.137 103.75 875.887 102.25C880.137 95.75 885.637 90 890.887 84L903.137 72L905.637 68.5L906.387 67L908.387 65.25H910.137C912.137 64 911.637 60.5 914.887 60.5C916.137 60 920.637 55.25 921.887 54C924.637 51.25 925.387 49.25 928.637 49.25C931.387 49.25 932.137 50.75 933.387 52.5C934.137 53.5 939.637 59.25 941.637 61C944.637 64.5 944.637 66.5 944.637 71V74.25L944.137 75.25L942.137 76.5L940.387 78.5H938.137L936.637 80L933.387 81.25C930.637 82.25 930.637 84 929.637 85.75L928.637 86.25L926.637 87.75C926.137 88.25 922.887 91.75 921.887 92.25L921.387 93.75V95.25L919.637 95.75L918.637 97.75C917.387 100.5 914.887 101.75 913.387 105.25C914.137 105.25 917.387 106.5 918.137 106.5L919.637 107.75H921.387L924.137 109C924.637 109 927.137 110.25 928.137 110.25L930.137 112.5L932.637 113C934.137 113.5 939.637 118.5 940.387 119.75C941.637 120.5 944.637 124.5 945.387 125L946.137 125.5C946.137 126.5 948.137 128.75 948.137 129.5C948.137 130.5 951.387 132.25 951.387 132.75V134.5C951.387 137.75 948.137 139.75 944.637 139.75C939.637 139.75 933.387 138.25 928.637 136.5C926.137 135.25 923.387 133.5 920.637 132.75C920.137 132.75 917.387 132.25 916.887 132.25C916.887 132.25 914.887 131 914.137 131L913.387 130.5H912.887L910.637 131C910.637 131 910.137 130.5 910.137 129.5H903.887L903.637 128.75C901.637 125.5 897.637 121.5 893.137 121.5C892.137 121.5 887.137 125.5 885.637 126.5C884.137 127.75 880.137 131 879.637 131L877.137 131.5C874.137 132.25 875.387 134.5 873.637 136.5C872.887 136.75 869.137 140.75 868.387 141.75C867.387 142.75 864.387 144.75 862.387 144.75C859.137 144.75 856.387 142.25 855.137 139.75ZM969.387 159.5C969.387 152.75 969.387 147.75 969.887 140.75C970.387 132.25 973.137 124.5 973.637 115.5V99.75C973.637 95.25 977.137 95.75 978.637 91L988.637 54C989.637 50 990.387 46.75 991.137 42.75L991.637 40.25C992.637 37.75 992.887 33.5 992.887 33.5C992.887 32.75 991.637 24 991.637 23.75V22C991.637 21.5 990.387 17 989.637 16C990.387 13.5 991.137 12 993.887 12C997.137 12 1002.89 14.75 1004.89 17.5C1007.14 21 1007.14 24 1007.14 27.75C1007.14 35.5 1006.39 43.5 1004.89 50.75C1004.89 52 1002.14 64 1002.14 65.25C1002.14 66.5 998.637 77.75 998.637 79.25C998.637 80.25 997.387 88.25 996.887 90.25V91.75H1002.89L1004.89 91C1005.39 91 1008.39 90.25 1008.89 90.25C1010.39 90.25 1018.14 87.25 1019.64 87.25C1023.64 86.25 1028.14 86.25 1032.39 85.25C1032.89 85.25 1035.64 84 1036.14 84C1038.14 83.25 1043.14 80.25 1043.64 80.25V81.25C1041.39 85.25 1039.14 88.25 1036.14 92.25C1035.64 93.25 1030.89 101 1030.89 101.75C1030.89 102.25 1031.39 102.25 1031.39 103.75C1031.39 104.25 1030.39 105.5 1029.64 105.5L1030.89 106.5V107.75L1030.39 109V111.75L1028.14 113V113.5C1028.14 115.5 1030.39 116.25 1030.39 116.25C1030.39 118.5 1027.14 119.75 1026.14 120.5C1024.39 122.5 1024.89 123 1022.89 124.5C1021.64 125.5 1018.89 125.5 1017.64 125.5C1016.39 125.5 1012.64 126.5 1012.39 126.5H1009.64C1008.89 126.5 1006.89 126.75 1006.39 126.75C1006.39 126.75 1004.89 127.75 1004.39 127.75L1002.89 128.5C1000.64 128.5 998.387 125.5 996.637 125L994.887 125.5H994.637C994.637 125 992.637 123 991.637 122.5H988.637C988.637 123.5 986.887 131.5 986.887 132.75V135.25L986.637 136.75C986.637 137.75 985.887 138.5 985.887 139.75C985.887 140.25 984.887 145.5 984.887 146.25C984.887 146.5 984.637 150.25 983.637 151.5L983.137 153.5V158.25C982.387 164.75 981.637 171.25 981.637 177.5V183C981.637 184 983.137 191.25 983.137 192.75C984.887 193 984.887 195.75 984.887 197.75C984.887 198.5 983.637 198.5 983.137 198.5C980.637 198.5 977.137 191.25 975.887 188.75C971.887 179.25 969.387 169.5 969.387 159.5Z" fill="black"/>
</svg>
